# xmcd CD database file
#
# Track frame offsets:
#	150
#	14736
#	43429
#	61103
#	77831
#	95070
#	115228
#	128037
#	145218
#	178381
#	194302
#	214940
#	238926
#	251687
#	269388
#	285464
#	298008
#	314769
#	336417
#
# Disc length: 4660 seconds
#
# Revision: 0
# Processed by: cddbd v1.4PL0 Copyright (c) Steve Scherf et al.
# Submitted via: CDex 1.51
#
DISCID=3d123213
DTITLE=Johnny Winter - Progressive Blues Experiment - Johnny Winter
DYEAR=1900
DGENRE=Blues
TTITLE0=Rollin' and Tumblin' 
TTITLE1=Tribute to Muddy
TTITLE2=I Got Love if You Want it
TTITLE3=Bad Luck and Trouble
TTITLE4=Help Me
TTITLE5=Mean Town Blues
TTITLE6=Broke Down Engine
TTITLE7=Black Cat Bone 6
TTITLE8=It's My Own Fault
TTITLE9=Forty-Four
TTITLE10=I'm Yours and I'm Hers
TTITLE11=Be Careful With a Fool
TTITLE12=Dallas
TTITLE13=Mean Mistreater
TTITLE14=Leland Mississipi Blues
TTITLE15=Good Morning Little Schoolgirl
TTITLE16=When You Got a Good Friend
TTITLE17=I'll Drown in My Tears
TTITLE18=Back Door Friend
EXTD=
EXTT0=
EXTT1=
EXTT2=
EXTT3=
EXTT4=
EXTT5=
EXTT6=
EXTT7=
EXTT8=
EXTT9=
EXTT10=
EXTT11=
EXTT12=
EXTT13=
EXTT14=
EXTT15=
EXTT16=
EXTT17=
EXTT18=
PLAYORDER=
